# xmcd CD database file
#
# Track frame offsets:
#	150
#	13685
#	26681
#	39696
#	52621
#	65173
#	77653
#	90623
#	103947
#	115840
#	127929
#	140016
#	152721
#	167381
#	180463
#	192484
#
# Disc length: 2722 seconds
#
# Revision: 0
# Processed by: cddbd v1.5.2PL0 Copyright (c) Steve Scherf et al.
# Submitted via: CDex 1.51
#
DISCID=cf0aa010
DTITLE=Dinah Washington - Stairway To The Stars
DYEAR=1900
DGENRE=Jazz
TTITLE0=Stairway To The Stars
TTITLE1=I Want To Be Loved
TTITLE2=Beggin' Mama Blues
TTITLE3=All Or Nothing Blues
TTITLE4=Why Can't You Behave
TTITLE5=I Can't Give You Anything But Love
TTITLE6=That's Why A Woman Loves A Heel
TTITLE7=Westside Baby
TTITLE8=I Love You, Yes I do
TTITLE9=Oo Wee Walkie Talkie
TTITLE10=It's Too Soon To Know
TTITLE11=Am I Asking Too Much
TTITLE12=Resolution Blues
TTITLE13=Embraceable You
TTITLE14=Since I Feel For You
TTITLE15=What Can I Say After I Say I'm Sorry
EXTD=
EXTT0=
EXTT1=
EXTT2=
EXTT3=
EXTT4=
EXTT5=
EXTT6=
EXTT7=
EXTT8=
EXTT9=
EXTT10=
EXTT11=
EXTT12=
EXTT13=
EXTT14=
EXTT15=
PLAYORDER=
